<svg width="50" height="50" viewBox="0 0 50 50" fill="none" xmlns="http://www.w3.org/2000/svg">
<g opacity="0.8">
<path d="M15.8854 12.8746L14.5326 12.8746V15.5802L15.8854 15.5802V12.8746ZM35.7728 14.2274H37.1256L37.1256 12.8746L35.7728 12.8746V14.2274ZM34.42 34.1148V35.4676H37.1256V34.1148H34.42ZM35.3483 16.565C35.8766 16.0367 35.8766 15.1802 35.3483 14.6519C34.82 14.1236 33.9634 14.1236 33.4351 14.6519L35.3483 16.565ZM13.2715 34.8155L12.315 35.772L14.2281 37.6852L15.1847 36.7286L13.2715 34.8155ZM15.8854 15.5802H35.7728V12.8746H15.8854V15.5802ZM34.42 14.2274V34.1148H37.1256V14.2274H34.42ZM33.4351 14.6519L13.2715 34.8155L15.1847 36.7286L35.3483 16.565L33.4351 14.6519Z" fill="black"/>
</g>
</svg>
