<svg width="30" height="30" viewBox="0 0 30 30" fill="none" xmlns="http://www.w3.org/2000/svg">
<path d="M0.744848 22.0349L0.744987 22.0349V22.022C0.744987 21.8768 0.788224 21.7909 0.856206 21.7269C0.940546 21.6476 1.04195 21.602 1.20099 21.602H23.605H23.6162L23.6274 21.6016C23.6802 21.5996 23.7328 21.6086 23.782 21.6279C23.8312 21.6472 23.8758 21.6764 23.9132 21.7138C23.9506 21.7512 23.9798 21.7958 23.9991 21.845C24.0184 21.8942 24.0274 21.9468 24.0254 21.9996L24.025 22.0108V22.022C24.025 22.1472 23.9878 22.2154 23.928 22.2681L23.9208 22.2745L23.9138 22.2811C23.8326 22.3575 23.7447 22.394 23.605 22.394H1.20099C1.04211 22.394 0.933745 22.348 0.844966 22.2707C0.81297 22.2412 0.787517 22.2052 0.770258 22.1652C0.75255 22.1241 0.743884 22.0797 0.744848 22.0349ZM3.88894 18.2617L3.88899 18.2617V18.254C3.88899 18.1354 3.92577 18.0523 4.01221 17.9709L4.01882 17.9647L4.02525 17.9583C4.0815 17.902 4.16351 17.858 4.30899 17.858H26.713C26.8288 17.858 26.9045 17.8901 26.9847 17.9703C27.0491 18.0346 27.085 18.1024 27.085 18.254C27.085 18.3952 27.0432 18.4867 26.9717 18.5631C26.895 18.6445 26.826 18.674 26.713 18.674H4.30899C4.17167 18.674 4.09479 18.636 4.02591 18.5628L4.0162 18.5525L4.00601 18.5426C3.96838 18.5063 3.93858 18.4626 3.91845 18.4142C3.89831 18.3659 3.88827 18.314 3.88894 18.2617ZM3.62499 15.542H4.0027C4.00365 15.5398 4.00454 15.5376 4.00538 15.5356C4.00802 15.5291 4.01049 15.5227 4.01279 15.5165L3.62499 15.4606L3.45699 15.4364V15.4579C3.47997 15.5156 3.53597 15.542 3.62499 15.542ZM5.11201 14.942H4.23846C4.52157 14.2731 4.93514 13.6867 5.47895 13.1683C6.16834 12.5113 6.97239 12.0821 7.89041 11.8661L8.25479 11.7803L8.33798 11.4154C8.6805 9.91269 9.43636 8.6869 10.6379 7.71686C11.8397 6.74662 13.1948 6.26602 14.737 6.26602C15.5761 6.26602 16.101 6.26874 16.6528 6.43014C17.1961 6.58904 17.8097 6.9178 18.7438 7.65982C19.9238 8.59719 20.6904 9.79067 21.0546 11.2585L21.1677 11.714H21.637H22.021C23.228 11.714 24.2885 12.0588 25.2246 12.7577C26.0141 13.3548 26.5858 14.0912 26.9309 14.966H26.0068C25.6478 14.2508 25.1291 13.6767 24.4516 13.2293C23.7132 12.7417 22.8893 12.506 22.009 12.506H20.4113L20.3607 12.1453C20.2113 10.7178 19.5895 9.50312 18.5193 8.55325L18.5165 8.55081C17.4368 7.60442 16.1688 7.11802 14.725 7.11802C13.271 7.11802 11.9889 7.60332 10.9064 8.56557C9.82193 9.52952 9.21412 10.7453 9.06526 12.1817L9.01927 12.5102L8.65308 12.5568C7.87427 12.6155 7.15251 12.8826 6.50821 13.335C5.90526 13.7583 5.44124 14.2931 5.11201 14.942ZM5.9769 25.7042H5.97699V25.694C5.97699 25.5834 6.00769 25.51 6.10021 25.4229L6.10682 25.4167L6.11325 25.4103C6.16703 25.3565 6.24763 25.31 6.40899 25.31H28.825C28.9662 25.31 29.0576 25.3518 29.134 25.4232C29.2155 25.4999 29.245 25.569 29.245 25.682C29.245 25.816 29.2087 25.9018 29.1207 25.9897C29.0301 26.0803 28.9431 26.114 28.825 26.114H6.40899C6.30877 26.114 6.21708 26.0816 6.11325 25.9778L6.10017 25.9647L6.0863 25.9524C6.05121 25.9214 6.02326 25.8831 6.00437 25.8403C5.98548 25.7974 5.97611 25.751 5.9769 25.7042Z" stroke="url(#paint0_linear_158_14)" stroke-width="1.2"/>
<defs>
<linearGradient id="paint0_linear_158_14" x1="38.0533" y1="19.174" x2="-22.8792" y2="28.4436" gradientUnits="userSpaceOnUse">
<stop stop-color="white" stop-opacity="0.8"/>
<stop offset="1" stop-color="white" stop-opacity="0"/>
</linearGradient>
</defs>
</svg>
