<svg width="30" height="30" viewBox="0 0 30 30" fill="none" xmlns="http://www.w3.org/2000/svg">
<path d="M21.8693 18.327L21.6678 18.5709L21.7898 18.8628C22.0589 19.5068 22.1894 20.1405 22.1894 20.7566C22.1894 21.6059 21.9735 22.3853 21.5578 23.1035C21.1441 23.8181 20.5718 24.3821 19.8519 24.7988C19.1369 25.2128 18.3579 25.4199 17.5156 25.4199H6.16636C5.32512 25.4199 4.55647 25.2133 3.84047 24.7988C3.43409 24.5635 3.18724 24.4182 2.95162 24.1999C2.71942 23.9847 2.47748 23.6776 2.1451 23.1035C1.73138 22.3888 1.52397 21.61 1.52397 20.7566C1.52397 19.671 1.86047 18.716 2.53267 17.8639C3.20156 17.0161 4.05103 16.483 5.11115 16.2369L5.4361 16.1614L5.50525 15.8351C5.77416 14.566 6.47885 13.431 7.49707 12.6271L7.49708 12.6271L7.50108 12.6239C8.53944 11.7875 9.72282 11.367 11.0812 11.367C12.0843 11.367 12.9349 11.5806 13.6507 11.9896L14.0062 12.1928L14.2892 11.897C15.3633 10.7745 16.5821 10.2353 17.9767 10.2353C18.6548 10.2353 19.2962 10.359 19.9072 10.6222L19.9072 10.6222L19.9135 10.6248C20.5282 10.8802 21.0477 11.2388 21.494 11.6851C21.9404 12.1315 22.299 12.651 22.5543 13.2657C22.8116 13.8849 22.9439 14.5293 22.9439 15.2025C22.9439 16.4217 22.582 17.4643 21.8693 18.327ZM5.84155 16.8487L5.82623 16.8496L5.81099 16.8515C4.81142 16.9704 3.96122 17.393 3.28627 18.1282C2.60985 18.865 2.26801 19.7463 2.26801 20.7566C2.26801 21.8397 2.65901 22.7763 3.41128 23.5525L3.41127 23.5525L3.41416 23.5555C4.17952 24.3328 5.09845 24.7283 6.16636 24.7283H17.5261C18.5892 24.7283 19.5305 24.3362 20.2888 23.5659C21.0448 22.7978 21.4349 21.8591 21.4349 20.7671C21.4349 19.6998 21.0399 18.7823 20.2754 18.0177C19.5096 17.2519 18.5811 16.8583 17.5156 16.8583H16.0944L16.0564 16.5439C15.9565 15.3141 15.3784 14.1722 14.4462 13.3636C13.5017 12.514 12.372 12.0796 11.0917 12.0796C9.84096 12.0796 8.73021 12.5049 7.79511 13.3576C6.86209 14.1979 6.31204 15.2664 6.14974 16.5184L6.10901 16.8327L5.84155 16.8487ZM11.427 8.96725H11.398L11.3699 8.97037C11.3661 8.97036 11.3473 8.96922 11.3088 8.9543C11.2602 8.93541 11.1902 8.89822 11.0971 8.82977L10.4455 8.19799C10.3704 8.10873 10.3372 8.01557 10.3372 7.89835C10.3372 7.77843 10.3704 7.71129 10.4343 7.65114L10.4401 7.6457L10.4457 7.64008C10.518 7.56781 10.6011 7.53168 10.7243 7.53157C10.823 7.5319 10.9181 7.56698 10.9932 7.63031L11.5918 8.29995L11.6125 8.3231L11.6358 8.34364C11.6973 8.39791 11.7309 8.46256 11.7309 8.56903C11.7309 8.69434 11.6932 8.78386 11.6218 8.85964C11.5318 8.95531 11.4741 8.96725 11.427 8.96725ZM15.0442 12.1648L14.6605 12.5374L15.0408 12.9133C15.899 13.7618 16.4318 14.7024 16.6695 15.7388L16.7628 16.1457H17.1802H17.5156C18.8016 16.1457 19.8851 16.5934 20.8043 17.5031L21.2911 17.9849L21.6288 17.389C22.0254 16.6892 22.2313 15.9512 22.2313 15.2025C22.2313 14.0248 21.8084 13.0221 20.988 12.2017C20.1637 11.3774 19.1489 10.9688 17.9767 10.9688C16.8546 10.9688 15.8645 11.3682 15.0442 12.1648ZM25.5248 7.62574L25.5248 7.62576L25.5286 7.62961C25.5916 7.69259 25.6266 7.76597 25.6266 7.88787C25.6266 8.01906 25.591 8.11259 25.5161 8.20057L24.057 9.65965C23.9059 9.76908 23.8145 9.78464 23.7823 9.78464C23.7226 9.78464 23.6249 9.76305 23.4907 9.66987C23.4538 9.61964 23.426 9.54647 23.426 9.40738C23.426 9.29712 23.4526 9.20653 23.5256 9.10627L25.0384 7.63468L25.047 7.62627L25.0553 7.61747C25.1058 7.56362 25.1626 7.53157 25.2808 7.53157V7.53171L25.2929 7.53143C25.336 7.53043 25.3788 7.53829 25.4186 7.55451C25.4585 7.57074 25.4947 7.59498 25.5248 7.62574ZM25.0553 22.7771L25.0467 22.7679L25.0377 22.7592L24.3661 22.1083C24.2868 22.0214 24.2538 21.9326 24.2538 21.815C24.2538 21.7114 24.286 21.6389 24.3615 21.5678L24.3672 21.5624L24.3728 21.5568C24.4358 21.4938 24.5092 21.4587 24.6311 21.4587L24.6359 21.4587C24.6759 21.4583 24.7156 21.4662 24.7524 21.4817C24.7893 21.4972 24.8226 21.5201 24.8503 21.549L24.8502 21.5491L24.8579 21.5568L25.5391 22.2379C25.6067 22.3055 25.6371 22.3811 25.6371 22.4752V22.4824L25.6373 22.4897C25.6387 22.5397 25.6301 22.5895 25.612 22.6362C25.594 22.6829 25.5668 22.7255 25.532 22.7616L25.532 22.7616L25.528 22.7658C25.4679 22.8298 25.4007 22.863 25.2808 22.863C25.1626 22.863 25.1058 22.8309 25.0553 22.7771ZM25.7943 15.2025H25.7944L25.7943 15.1962C25.7937 15.1519 25.8026 15.108 25.8202 15.0673C25.8378 15.0267 25.8638 14.9903 25.8965 14.9604L25.9051 14.9525L25.9133 14.9442C25.9901 14.8675 26.0651 14.8357 26.1821 14.8357H28.3199C28.4144 14.8357 28.4861 14.8688 28.5454 14.9321C28.608 14.9989 28.6447 15.0789 28.6447 15.2025C28.6447 15.346 28.6072 15.403 28.5693 15.4385C28.4953 15.5079 28.4232 15.5378 28.3199 15.5378H26.1821C26.0535 15.5378 25.972 15.4985 25.9133 15.4398L25.9077 15.4342L25.9019 15.4288C25.8183 15.3501 25.7943 15.2851 25.7943 15.2025ZM17.7406 7.29895C17.6821 7.23654 17.6413 7.15853 17.6413 7.0076V4.85931C17.6413 4.71585 17.6789 4.65879 17.7167 4.62328C17.7882 4.55625 17.8596 4.52397 17.9767 4.52397C18.1297 4.52397 18.1954 4.5615 18.2454 4.61153C18.313 4.67914 18.3435 4.7442 18.3435 4.85931V7.0076C18.3435 7.16772 18.3071 7.23337 18.2617 7.28093C18.2003 7.33629 18.1225 7.37438 17.9767 7.37438C17.8332 7.37438 17.7761 7.33683 17.7406 7.29895Z" stroke="url(#paint0_linear_158_20)" stroke-width="1.04794"/>
<defs>
<linearGradient id="paint0_linear_158_20" x1="36.9537" y1="18.083" x2="-21.063" y2="26.1121" gradientUnits="userSpaceOnUse">
<stop stop-color="white" stop-opacity="0.8"/>
<stop offset="1" stop-color="white" stop-opacity="0"/>
</linearGradient>
</defs>
</svg>
