<svg width="30" height="30" viewBox="0 0 30 30" fill="none" xmlns="http://www.w3.org/2000/svg">
<path d="M6.65751 13.6736L7.02935 13.5906L7.11238 13.2188C7.36561 12.0847 7.88068 11.0987 8.65076 10.2516L8.65174 10.2505C9.40638 9.41634 10.3641 8.79173 11.4318 8.43747L11.4318 8.43748L11.4353 8.43629C12.1192 8.20464 12.8223 8.084 13.5588 8.084C14.4503 8.084 15.3182 8.25981 16.1433 8.61187L16.6258 8.81772L16.8943 8.36708C17.2027 7.84935 17.5611 7.40617 17.9669 7.04314C18.3902 6.66441 18.8072 6.37956 19.217 6.19515C19.6678 5.99229 20.1116 5.83777 20.5251 5.73985C20.9331 5.64321 21.3426 5.6 21.7308 5.6C22.1299 5.6 22.5681 5.65196 23.0468 5.77047L23.6933 5.96759L23.6065 6.33966L23.6065 6.33966L23.6055 6.34384C23.512 6.75801 23.4708 7.15032 23.4708 7.508C23.4708 7.94448 23.5412 8.38876 23.6781 8.82696C23.8128 9.25791 24.0021 9.67765 24.2709 10.0955C24.5504 10.5493 24.9347 10.9255 25.3834 11.2554C25.8444 11.5944 26.3577 11.8511 26.9312 12.0261L27.3496 12.1745L27.2233 12.6443L27.2233 12.6443L27.2207 12.6545C26.9233 13.8443 26.3698 14.755 25.6042 15.4356L25.2403 15.759L25.4819 16.1817C25.9158 16.941 26.151 17.7472 26.1832 18.5948L26.185 18.6427L26.1925 18.6799C26.1928 18.6838 26.1932 18.6912 26.1936 18.703C26.1947 18.7358 26.1948 18.7785 26.1948 18.848C26.1948 19.8123 25.9578 20.7021 25.4745 21.5183L25.4745 21.5183L25.4715 21.5234C24.9978 22.3416 24.3422 22.988 23.5288 23.4656C22.7063 23.9414 21.8141 24.188 20.8548 24.188H7.8828C6.91849 24.188 6.02867 23.951 5.21249 23.4677C4.38951 22.9804 3.75377 22.3342 3.27631 21.5204C2.80458 20.7163 2.5668 19.8258 2.5668 18.848C2.5668 17.5885 2.9428 16.4959 3.70986 15.5236C4.47591 14.5526 5.44743 13.9437 6.65751 13.6736ZM13.5588 8.924C13.1396 8.924 12.7242 8.97389 12.3108 9.0684V8.97524L11.4959 9.28779C10.5175 9.66308 9.68508 10.2812 9.03101 11.1213C8.36204 11.965 7.96022 12.9327 7.82721 14.0234L7.82632 14.0306L7.82561 14.0379L7.79201 14.3835L7.49635 14.3966L7.47404 14.3976L7.45187 14.4002C6.30726 14.5365 5.33369 15.0203 4.56081 15.8622C3.7813 16.7113 3.4188 17.7107 3.4188 18.848C3.4188 20.0779 3.86782 21.1518 4.74326 22.041C5.61542 22.9268 6.66618 23.396 7.8828 23.396H20.8548C22.0859 23.396 23.1531 22.9457 24.0216 22.0496C24.8831 21.1608 25.3308 20.0882 25.3308 18.848C25.3308 17.6265 24.8789 16.5739 23.9997 15.7084C23.1238 14.8462 22.0623 14.396 20.8428 14.396H19.2321L19.1828 14.0265C19.0469 12.6769 18.4791 11.5038 17.4902 10.5551C16.5043 9.6091 15.3207 9.07055 13.9721 8.95037L13.9455 8.948H13.9188C13.9019 8.948 13.8907 8.94795 13.8768 8.94725C13.8631 8.94657 13.8455 8.94516 13.8236 8.94203C13.6988 8.9242 13.6186 8.924 13.5588 8.924ZM17.6043 8.8073L17.3438 9.24145L17.728 9.57125C18.9143 10.5897 19.6258 11.7495 19.8952 13.0534L19.9941 13.532H20.4828H20.8668C22.2172 13.532 23.3421 13.9519 24.2674 14.7922L24.6777 15.1647L25.0816 14.7853C25.538 14.3566 25.8832 13.8587 26.13 13.3102L26.3721 12.7722L25.8382 12.5211C24.8652 12.0634 24.053 11.3227 23.508 10.3958L23.5074 10.3948C22.9331 9.42286 22.6428 8.41133 22.6428 7.364V7.076V6.58412L22.1605 6.48765C22.0386 6.46328 21.8842 6.46368 21.7829 6.46395C21.7748 6.46397 21.767 6.46399 21.7596 6.464C20.9583 6.45113 20.1724 6.64612 19.4238 7.06728C18.6756 7.47616 18.0568 8.05314 17.6043 8.8073Z" stroke="url(#paint0_linear_158_22)" stroke-width="1.2"/>
<defs>
<linearGradient id="paint0_linear_158_22" x1="35.2495" y1="17.6994" x2="-18.4029" y2="25.3218" gradientUnits="userSpaceOnUse">
<stop stop-color="white" stop-opacity="0.8"/>
<stop offset="1" stop-color="white" stop-opacity="0"/>
</linearGradient>
</defs>
</svg>
