<svg width="30" height="30" viewBox="0 0 30 30" fill="none" xmlns="http://www.w3.org/2000/svg">
<mask id="path-1-inside-1_158_10" fill="white">
<path d="M2.56885 16.8519C2.56885 15.4599 2.98885 14.2359 3.84085 13.1559C4.69285 12.0759 5.78485 11.3799 7.12885 11.0439C7.50085 9.41194 8.34085 8.06794 9.64885 7.01194C11.6108 5.42794 12.4568 5.43994 14.1488 5.43994C15.8048 5.43994 17.2688 5.95594 18.5648 6.97594C19.8608 7.99594 20.7008 9.31594 21.0848 10.9239H21.4688C22.5368 10.9239 23.5329 11.1879 24.4449 11.7159C25.3569 12.2439 26.0888 12.9639 26.6168 13.8759C27.1448 14.7879 27.4208 15.7839 27.4208 16.8519C27.4208 18.4359 26.8688 19.8159 25.7528 20.9559C24.6488 22.1079 23.2928 22.7079 21.6968 22.7559C21.5408 22.7559 21.4568 22.6839 21.4568 22.5519V20.9559C21.4568 20.8119 21.5408 20.7399 21.6968 20.7399C22.7168 20.6919 23.5928 20.2839 24.3128 19.5159C25.0328 18.7479 25.3928 17.8599 25.3928 16.8399C25.3928 15.7719 25.0088 14.8599 24.2288 14.0799C23.4488 13.2999 22.5249 12.9159 21.4449 12.9159H19.5128C19.3688 12.9159 19.2968 12.8439 19.2968 12.7119L19.2008 12.0159C19.0688 10.7199 18.5048 9.62794 17.5328 8.75194C16.5488 7.87594 15.4208 7.43194 14.1128 7.43194C12.7928 7.43194 11.6528 7.87594 10.6808 8.76394C9.70885 9.65194 9.15685 10.7439 9.03685 12.0639L8.96485 12.6639C8.96485 12.8079 8.88085 12.8919 8.72485 12.8919L8.08885 12.9759C7.09285 13.0599 6.25285 13.4679 5.56885 14.2239C4.88485 14.9799 4.54885 15.8439 4.54885 16.8519C4.54885 17.8719 4.90885 18.7599 5.62885 19.5279C6.34885 20.2959 7.22485 20.6919 8.24485 20.7519C8.37685 20.7519 8.44885 20.8239 8.44885 20.9679V22.5639C8.44885 22.6959 8.37685 22.7679 8.24485 22.7679C6.63685 22.7199 5.28085 22.1199 4.16485 20.9679C3.12085 19.8159 2.56885 18.4359 2.56885 16.8519ZM10.2008 21.7359C10.2008 21.4719 10.2968 21.2319 10.4888 21.0399C10.6808 20.8479 10.9088 20.7519 11.1968 20.7519C11.4728 20.7519 11.7128 20.8479 11.9048 21.0399C12.0968 21.2319 12.1928 21.4719 12.1928 21.7359C12.1928 22.0239 12.0968 22.2639 11.9048 22.4559C11.7128 22.6599 11.4848 22.7559 11.1968 22.7559C10.9208 22.7559 10.6808 22.6599 10.4888 22.4559C10.3934 22.3626 10.3185 22.2503 10.2689 22.1263C10.2193 22.0023 10.1961 21.8694 10.2008 21.7359ZM10.2008 26.0919C10.2008 25.8039 10.2968 25.5639 10.4888 25.3719C10.6808 25.1919 10.9088 25.0959 11.1848 25.0959C11.4608 25.0959 11.7008 25.1919 11.8928 25.3719C12.0848 25.5639 12.1808 25.7919 12.1808 26.0799C12.1808 26.3679 12.0848 26.5959 11.8928 26.7879C11.7008 26.9799 11.4728 27.0639 11.1848 27.0639C10.9219 27.0678 10.6678 26.9688 10.4768 26.7879C10.3866 26.6963 10.3156 26.5875 10.2682 26.468C10.2208 26.3484 10.1979 26.2205 10.2008 26.0919ZM14.0288 24.0519C14.0288 23.7759 14.1248 23.5239 14.3288 23.3079C14.5208 23.1159 14.7488 23.0199 15.0128 23.0199C15.2888 23.0199 15.5288 23.1279 15.7328 23.3319C15.9368 23.5359 16.0448 23.7759 16.0448 24.0519C16.0448 24.3279 15.9488 24.5679 15.7448 24.7719C15.5408 24.9759 15.3008 25.0719 15.0128 25.0719C14.7368 25.0719 14.5088 24.9759 14.3168 24.7719C14.1248 24.5679 14.0288 24.3279 14.0288 24.0519ZM14.0288 19.7079C14.0288 19.4319 14.1248 19.1919 14.3288 18.9879C14.5448 18.7959 14.7728 18.6999 15.0128 18.6999C15.3008 18.6999 15.5408 18.7959 15.7448 18.9999C15.8425 19.0923 15.9196 19.2041 15.9713 19.3281C16.0229 19.4521 16.048 19.5856 16.0448 19.7199C16.0448 19.9959 15.9488 20.2359 15.7448 20.4279C15.5408 20.6199 15.3008 20.7159 15.0128 20.7159C14.7368 20.7159 14.5088 20.6199 14.3168 20.4279C14.1298 20.2352 14.0263 19.9765 14.0288 19.7079ZM14.0288 28.4439C14.0288 28.1679 14.1248 27.9279 14.3288 27.7119C14.5208 27.5199 14.7488 27.4239 15.0128 27.4239C15.3008 27.4239 15.5408 27.5199 15.7448 27.7239C15.9488 27.9279 16.0448 28.1679 16.0448 28.4439C16.0448 28.7199 15.9488 28.9599 15.7448 29.1519C15.5408 29.3439 15.3008 29.4399 15.0128 29.4399C14.8828 29.4393 14.7541 29.413 14.6343 29.3626C14.5144 29.3122 14.4056 29.2386 14.3142 29.1461C14.2228 29.0536 14.1506 28.9439 14.1016 28.8234C14.0526 28.703 14.0279 28.574 14.0288 28.4439ZM17.8928 21.7359C17.8928 21.4719 17.9888 21.2439 18.1928 21.0399C18.3968 20.8359 18.6368 20.7399 18.9128 20.7399C19.1888 20.7399 19.4288 20.8359 19.6208 21.0279C19.8128 21.2199 19.9088 21.4599 19.9088 21.7239C19.9088 22.0119 19.8128 22.2519 19.6208 22.4439C19.4288 22.6479 19.2008 22.7439 18.9128 22.7439C18.6248 22.7439 18.3848 22.6479 18.1928 22.4439C18.0979 22.3521 18.0224 22.2421 17.9708 22.1205C17.9193 21.9988 17.8928 21.8681 17.8928 21.7359ZM17.8928 26.0919C17.8928 25.8279 17.9888 25.5879 18.1928 25.3719C18.3848 25.1919 18.6248 25.0959 18.9128 25.0959C19.2008 25.0959 19.4288 25.1919 19.6208 25.3719C19.8128 25.5519 19.8968 25.7919 19.8968 26.0799C19.8968 26.3679 19.8008 26.5959 19.6208 26.7879C19.4288 26.9799 19.2008 27.0639 18.9128 27.0639C18.6248 27.0639 18.3848 26.9679 18.1928 26.7759C18.0974 26.6896 18.0213 26.584 17.9696 26.4661C17.9179 26.3482 17.8917 26.2207 17.8928 26.0919Z"/>
</mask>
<path d="M2.56885 16.8519C2.56885 15.4599 2.98885 14.2359 3.84085 13.1559C4.69285 12.0759 5.78485 11.3799 7.12885 11.0439C7.50085 9.41194 8.34085 8.06794 9.64885 7.01194C11.6108 5.42794 12.4568 5.43994 14.1488 5.43994C15.8048 5.43994 17.2688 5.95594 18.5648 6.97594C19.8608 7.99594 20.7008 9.31594 21.0848 10.9239H21.4688C22.5368 10.9239 23.5329 11.1879 24.4449 11.7159C25.3569 12.2439 26.0888 12.9639 26.6168 13.8759C27.1448 14.7879 27.4208 15.7839 27.4208 16.8519C27.4208 18.4359 26.8688 19.8159 25.7528 20.9559C24.6488 22.1079 23.2928 22.7079 21.6968 22.7559C21.5408 22.7559 21.4568 22.6839 21.4568 22.5519V20.9559C21.4568 20.8119 21.5408 20.7399 21.6968 20.7399C22.7168 20.6919 23.5928 20.2839 24.3128 19.5159C25.0328 18.7479 25.3928 17.8599 25.3928 16.8399C25.3928 15.7719 25.0088 14.8599 24.2288 14.0799C23.4488 13.2999 22.5249 12.9159 21.4449 12.9159H19.5128C19.3688 12.9159 19.2968 12.8439 19.2968 12.7119L19.2008 12.0159C19.0688 10.7199 18.5048 9.62794 17.5328 8.75194C16.5488 7.87594 15.4208 7.43194 14.1128 7.43194C12.7928 7.43194 11.6528 7.87594 10.6808 8.76394C9.70885 9.65194 9.15685 10.7439 9.03685 12.0639L8.96485 12.6639C8.96485 12.8079 8.88085 12.8919 8.72485 12.8919L8.08885 12.9759C7.09285 13.0599 6.25285 13.4679 5.56885 14.2239C4.88485 14.9799 4.54885 15.8439 4.54885 16.8519C4.54885 17.8719 4.90885 18.7599 5.62885 19.5279C6.34885 20.2959 7.22485 20.6919 8.24485 20.7519C8.37685 20.7519 8.44885 20.8239 8.44885 20.9679V22.5639C8.44885 22.6959 8.37685 22.7679 8.24485 22.7679C6.63685 22.7199 5.28085 22.1199 4.16485 20.9679C3.12085 19.8159 2.56885 18.4359 2.56885 16.8519ZM10.2008 21.7359C10.2008 21.4719 10.2968 21.2319 10.4888 21.0399C10.6808 20.8479 10.9088 20.7519 11.1968 20.7519C11.4728 20.7519 11.7128 20.8479 11.9048 21.0399C12.0968 21.2319 12.1928 21.4719 12.1928 21.7359C12.1928 22.0239 12.0968 22.2639 11.9048 22.4559C11.7128 22.6599 11.4848 22.7559 11.1968 22.7559C10.9208 22.7559 10.6808 22.6599 10.4888 22.4559C10.3934 22.3626 10.3185 22.2503 10.2689 22.1263C10.2193 22.0023 10.1961 21.8694 10.2008 21.7359ZM10.2008 26.0919C10.2008 25.8039 10.2968 25.5639 10.4888 25.3719C10.6808 25.1919 10.9088 25.0959 11.1848 25.0959C11.4608 25.0959 11.7008 25.1919 11.8928 25.3719C12.0848 25.5639 12.1808 25.7919 12.1808 26.0799C12.1808 26.3679 12.0848 26.5959 11.8928 26.7879C11.7008 26.9799 11.4728 27.0639 11.1848 27.0639C10.9219 27.0678 10.6678 26.9688 10.4768 26.7879C10.3866 26.6963 10.3156 26.5875 10.2682 26.468C10.2208 26.3484 10.1979 26.2205 10.2008 26.0919ZM14.0288 24.0519C14.0288 23.7759 14.1248 23.5239 14.3288 23.3079C14.5208 23.1159 14.7488 23.0199 15.0128 23.0199C15.2888 23.0199 15.5288 23.1279 15.7328 23.3319C15.9368 23.5359 16.0448 23.7759 16.0448 24.0519C16.0448 24.3279 15.9488 24.5679 15.7448 24.7719C15.5408 24.9759 15.3008 25.0719 15.0128 25.0719C14.7368 25.0719 14.5088 24.9759 14.3168 24.7719C14.1248 24.5679 14.0288 24.3279 14.0288 24.0519ZM14.0288 19.7079C14.0288 19.4319 14.1248 19.1919 14.3288 18.9879C14.5448 18.7959 14.7728 18.6999 15.0128 18.6999C15.3008 18.6999 15.5408 18.7959 15.7448 18.9999C15.8425 19.0923 15.9196 19.2041 15.9713 19.3281C16.0229 19.4521 16.048 19.5856 16.0448 19.7199C16.0448 19.9959 15.9488 20.2359 15.7448 20.4279C15.5408 20.6199 15.3008 20.7159 15.0128 20.7159C14.7368 20.7159 14.5088 20.6199 14.3168 20.4279C14.1298 20.2352 14.0263 19.9765 14.0288 19.7079ZM14.0288 28.4439C14.0288 28.1679 14.1248 27.9279 14.3288 27.7119C14.5208 27.5199 14.7488 27.4239 15.0128 27.4239C15.3008 27.4239 15.5408 27.5199 15.7448 27.7239C15.9488 27.9279 16.0448 28.1679 16.0448 28.4439C16.0448 28.7199 15.9488 28.9599 15.7448 29.1519C15.5408 29.3439 15.3008 29.4399 15.0128 29.4399C14.8828 29.4393 14.7541 29.413 14.6343 29.3626C14.5144 29.3122 14.4056 29.2386 14.3142 29.1461C14.2228 29.0536 14.1506 28.9439 14.1016 28.8234C14.0526 28.703 14.0279 28.574 14.0288 28.4439ZM17.8928 21.7359C17.8928 21.4719 17.9888 21.2439 18.1928 21.0399C18.3968 20.8359 18.6368 20.7399 18.9128 20.7399C19.1888 20.7399 19.4288 20.8359 19.6208 21.0279C19.8128 21.2199 19.9088 21.4599 19.9088 21.7239C19.9088 22.0119 19.8128 22.2519 19.6208 22.4439C19.4288 22.6479 19.2008 22.7439 18.9128 22.7439C18.6248 22.7439 18.3848 22.6479 18.1928 22.4439C18.0979 22.3521 18.0224 22.2421 17.9708 22.1205C17.9193 21.9988 17.8928 21.8681 17.8928 21.7359ZM17.8928 26.0919C17.8928 25.8279 17.9888 25.5879 18.1928 25.3719C18.3848 25.1919 18.6248 25.0959 18.9128 25.0959C19.2008 25.0959 19.4288 25.1919 19.6208 25.3719C19.8128 25.5519 19.8968 25.7919 19.8968 26.0799C19.8968 26.3679 19.8008 26.5959 19.6208 26.7879C19.4288 26.9799 19.2008 27.0639 18.9128 27.0639C18.6248 27.0639 18.3848 26.9679 18.1928 26.7759C18.0974 26.6896 18.0213 26.584 17.9696 26.4661C17.9179 26.3482 17.8917 26.2207 17.8928 26.0919Z" stroke="url(#paint0_linear_158_10)" stroke-width="2.4" mask="url(#path-1-inside-1_158_10)"/>
<defs>
<linearGradient id="paint0_linear_158_10" x1="34.2892" y1="20.8425" x2="-17.2346" y2="26.5945" gradientUnits="userSpaceOnUse">
<stop stop-color="white" stop-opacity="0.8"/>
<stop offset="1" stop-color="white" stop-opacity="0"/>
</linearGradient>
</defs>
</svg>
