<svg width="30" height="30" viewBox="0 0 30 30" fill="none" xmlns="http://www.w3.org/2000/svg">
<path d="M22.143 13.5429L22.8528 13.6035L22.8528 14.48L22.8528 14.4846C22.864 15.916 22.5187 17.2383 21.8173 18.4517L21.8155 18.4549C21.1328 19.6532 20.1447 20.649 18.9518 21.3409L18.9505 21.3417C17.7479 22.0432 16.4245 22.4 14.9928 22.4C13.9091 22.4 12.8721 22.1881 11.8894 21.7749C10.9053 21.3611 10.071 20.7932 9.37063 20.0932C8.65783 19.3696 8.09088 18.5157 7.70066 17.578C7.30796 16.5892 7.09683 15.5616 7.09683 14.48C7.09683 13.4103 7.30789 12.3972 7.72193 11.4125C8.13601 10.4277 8.70442 9.5929 9.40509 8.89223C10.104 8.19334 10.9515 7.6228 11.9427 7.1948C12.9239 6.77111 13.9469 6.55996 15.0048 6.55996H16.0629L16.1094 7.37859C16.1636 9.04469 16.7614 10.4838 17.9262 11.6618C19.0828 12.8316 20.4929 13.4737 22.143 13.5429ZM8.68388 17.3141L8.68387 17.3141L8.68522 17.3172C9.07498 18.1876 9.5996 18.9387 10.2502 19.5494C10.8906 20.1506 11.6231 20.6217 12.4563 20.9611C13.2257 21.2947 14.0534 21.4733 14.8919 21.4869C15.7324 21.5006 16.5673 21.3481 17.3486 21.0382C18.1209 20.7364 18.8418 20.3169 19.4859 19.7947C20.1641 19.2492 20.7256 18.5652 21.2003 17.7443C21.6856 16.9047 21.9846 16.0029 22.1266 15.0219L22.2074 14.4638L21.6553 14.3486C19.8014 13.9619 18.3477 13.175 17.2694 12.0086C16.1798 10.8301 15.5519 9.46265 15.3856 7.8658L15.326 7.29322L14.7514 7.32913C13.4945 7.40769 12.3598 7.7898 11.3226 8.4857L11.3225 8.48569L11.3196 8.48769C10.3063 9.17625 9.50563 10.0534 8.94145 11.1293C8.38361 12.1931 8.09283 13.3082 8.09283 14.48C8.09283 15.4734 8.28944 16.4201 8.68388 17.3141Z" stroke="url(#paint0_linear_158_26)" stroke-width="1.2"/>
<defs>
<linearGradient id="paint0_linear_158_26" x1="28.1393" y1="16.8958" x2="-7.04803" y2="20.6707" gradientUnits="userSpaceOnUse">
<stop stop-color="white" stop-opacity="0.8"/>
<stop offset="1" stop-color="white" stop-opacity="0"/>
</linearGradient>
</defs>
</svg>
