<svg width="30" height="30" viewBox="0 0 30 30" fill="none" xmlns="http://www.w3.org/2000/svg">
<mask id="path-1-inside-1_158_8" fill="white">
<path d="M2.24588 14.618C2.24588 14.33 2.34188 14.078 2.54588 13.874C2.74988 13.682 3.00188 13.586 3.26588 13.586H5.71388C5.98988 13.586 6.21788 13.682 6.40988 13.886C6.58988 14.09 6.68588 14.33 6.68588 14.618C6.68588 14.906 6.60188 15.146 6.42188 15.35C6.24188 15.554 6.00188 15.65 5.72588 15.65H3.27788C3.00188 15.65 2.76188 15.554 2.55788 15.35C2.45836 15.256 2.37929 15.1425 2.32561 15.0165C2.27192 14.8906 2.24478 14.7549 2.24588 14.618ZM5.67788 22.934C5.67788 22.658 5.77388 22.418 5.95388 22.202L7.71788 20.486C7.89788 20.294 8.13788 20.21 8.42588 20.21C8.71388 20.21 8.95388 20.306 9.14588 20.486C9.33788 20.666 9.43388 20.894 9.43388 21.17C9.43388 21.458 9.33788 21.722 9.14588 21.938L7.44188 23.642C6.94988 24.026 6.45788 24.026 5.96588 23.642C5.87195 23.55 5.79792 23.4397 5.74838 23.3179C5.69884 23.1961 5.67485 23.0655 5.67788 22.934ZM5.67788 6.32602C5.67788 6.05002 5.77388 5.81002 5.95388 5.59402C6.19388 5.39002 6.44588 5.29402 6.72188 5.29402C6.98588 5.29402 7.22588 5.39002 7.42988 5.58202L9.14588 7.34602C9.33788 7.52602 9.43388 7.76602 9.43388 8.05402C9.43388 8.34202 9.33788 8.58202 9.14588 8.77402C8.85788 9.06202 8.71388 9.06202 8.42588 9.06202C8.13788 9.06202 7.89788 8.96602 7.71788 8.77402L5.96588 7.05802C5.87126 6.96155 5.79701 6.84703 5.74753 6.72128C5.69805 6.59553 5.67437 6.46111 5.67788 6.32602ZM8.73788 14.618C8.73788 13.502 9.01388 12.458 9.57788 11.498C10.1419 10.538 10.8979 9.77002 11.8699 9.20602C12.8419 8.64202 13.8739 8.36602 14.9899 8.36602C15.8299 8.36602 16.6339 8.53402 17.4139 8.87002C18.1819 9.20602 18.8539 9.65002 19.4059 10.214C19.9699 10.778 20.4139 11.438 20.7379 12.206C21.0619 12.974 21.2299 13.79 21.2299 14.63C21.2299 15.758 20.9539 16.802 20.3899 17.762C19.8259 18.722 19.0699 19.478 18.1099 20.042C17.1499 20.606 16.1059 20.882 14.9779 20.882C13.8499 20.882 12.8059 20.606 11.8459 20.042C10.8859 19.478 10.1299 18.722 9.56588 17.762C9.02588 16.79 8.73788 15.746 8.73788 14.618ZM10.7779 14.618C10.7779 15.794 11.1859 16.79 12.0139 17.618C12.8299 18.446 13.8259 18.866 15.0019 18.866C16.1779 18.866 17.1739 18.446 18.0019 17.618C18.8299 16.79 19.2499 15.794 19.2499 14.618C19.2499 13.466 18.8299 12.482 18.0019 11.654C17.1739 10.838 16.1779 10.43 15.0019 10.43C13.8379 10.43 12.8419 10.838 12.0259 11.654C11.1859 12.482 10.7779 13.466 10.7779 14.618ZM13.9699 23.954C13.9699 23.666 14.0659 23.426 14.2699 23.234C14.4739 23.042 14.7139 22.946 14.9899 22.946C15.2779 22.946 15.5299 23.042 15.7219 23.234C15.9139 23.426 16.0099 23.666 16.0099 23.954V26.342C16.0099 26.63 15.9139 26.882 15.7099 27.086C15.5059 27.29 15.2659 27.386 14.9899 27.386C14.7139 27.386 14.4619 27.29 14.2699 27.086C14.1722 26.9887 14.0952 26.8726 14.0437 26.7448C13.9921 26.6169 13.967 26.4799 13.9699 26.342V23.954ZM13.9699 5.35402V2.90602C13.9699 2.63002 14.0659 2.39002 14.2699 2.18602C14.4739 1.98202 14.7139 1.87402 15.0019 1.87402C15.2899 1.87402 15.5179 1.97002 15.7219 2.17402C15.9259 2.37802 16.0219 2.61802 16.0219 2.89402V5.35402C16.0219 5.63002 15.9259 5.85802 15.7219 6.05002C15.5179 6.24202 15.2779 6.32602 15.0019 6.32602C14.7259 6.32602 14.4739 6.23002 14.2819 6.05002C14.0899 5.87002 13.9699 5.63002 13.9699 5.35402ZM20.5939 21.17C20.5939 20.894 20.6899 20.666 20.8699 20.498C21.0499 20.306 21.2779 20.222 21.5419 20.222C21.8299 20.222 22.0699 20.318 22.2619 20.498L24.0139 22.214C24.2059 22.418 24.3019 22.67 24.3019 22.946C24.3019 23.222 24.2059 23.462 24.0139 23.654C23.5339 24.026 23.0539 24.026 22.5739 23.654L20.8699 21.95C20.6855 21.7326 20.5873 21.4551 20.5939 21.17ZM20.5939 8.06602C20.5939 7.76602 20.6899 7.52602 20.8699 7.35802L22.5739 5.59402C22.7629 5.4088 23.0172 5.30536 23.2819 5.30602C23.5699 5.30602 23.8099 5.40202 24.0019 5.60602C24.2059 5.81002 24.3019 6.05002 24.3019 6.32602C24.3019 6.62602 24.2059 6.87802 24.0139 7.07002L22.2619 8.78602C22.0459 8.97802 21.8059 9.07402 21.5419 9.07402C21.2659 9.07402 21.0499 8.97802 20.8699 8.78602C20.6899 8.59402 20.5939 8.35402 20.5939 8.06602ZM23.3059 14.618C23.3059 14.33 23.4019 14.09 23.5939 13.874C23.7859 13.682 24.0139 13.586 24.2779 13.586H26.7019C26.9779 13.586 27.2179 13.694 27.4219 13.898C27.6259 14.102 27.7339 14.342 27.7339 14.618C27.7339 14.894 27.6259 15.134 27.4219 15.338C27.2179 15.542 26.9779 15.638 26.7019 15.638H24.2779C24.0019 15.638 23.7619 15.542 23.5819 15.338C23.4019 15.134 23.3059 14.906 23.3059 14.618Z"/>
</mask>
<path d="M2.24588 14.618C2.24588 14.33 2.34188 14.078 2.54588 13.874C2.74988 13.682 3.00188 13.586 3.26588 13.586H5.71388C5.98988 13.586 6.21788 13.682 6.40988 13.886C6.58988 14.09 6.68588 14.33 6.68588 14.618C6.68588 14.906 6.60188 15.146 6.42188 15.35C6.24188 15.554 6.00188 15.65 5.72588 15.65H3.27788C3.00188 15.65 2.76188 15.554 2.55788 15.35C2.45836 15.256 2.37929 15.1425 2.32561 15.0165C2.27192 14.8906 2.24478 14.7549 2.24588 14.618ZM5.67788 22.934C5.67788 22.658 5.77388 22.418 5.95388 22.202L7.71788 20.486C7.89788 20.294 8.13788 20.21 8.42588 20.21C8.71388 20.21 8.95388 20.306 9.14588 20.486C9.33788 20.666 9.43388 20.894 9.43388 21.17C9.43388 21.458 9.33788 21.722 9.14588 21.938L7.44188 23.642C6.94988 24.026 6.45788 24.026 5.96588 23.642C5.87195 23.55 5.79792 23.4397 5.74838 23.3179C5.69884 23.1961 5.67485 23.0655 5.67788 22.934ZM5.67788 6.32602C5.67788 6.05002 5.77388 5.81002 5.95388 5.59402C6.19388 5.39002 6.44588 5.29402 6.72188 5.29402C6.98588 5.29402 7.22588 5.39002 7.42988 5.58202L9.14588 7.34602C9.33788 7.52602 9.43388 7.76602 9.43388 8.05402C9.43388 8.34202 9.33788 8.58202 9.14588 8.77402C8.85788 9.06202 8.71388 9.06202 8.42588 9.06202C8.13788 9.06202 7.89788 8.96602 7.71788 8.77402L5.96588 7.05802C5.87126 6.96155 5.79701 6.84703 5.74753 6.72128C5.69805 6.59553 5.67437 6.46111 5.67788 6.32602ZM8.73788 14.618C8.73788 13.502 9.01388 12.458 9.57788 11.498C10.1419 10.538 10.8979 9.77002 11.8699 9.20602C12.8419 8.64202 13.8739 8.36602 14.9899 8.36602C15.8299 8.36602 16.6339 8.53402 17.4139 8.87002C18.1819 9.20602 18.8539 9.65002 19.4059 10.214C19.9699 10.778 20.4139 11.438 20.7379 12.206C21.0619 12.974 21.2299 13.79 21.2299 14.63C21.2299 15.758 20.9539 16.802 20.3899 17.762C19.8259 18.722 19.0699 19.478 18.1099 20.042C17.1499 20.606 16.1059 20.882 14.9779 20.882C13.8499 20.882 12.8059 20.606 11.8459 20.042C10.8859 19.478 10.1299 18.722 9.56588 17.762C9.02588 16.79 8.73788 15.746 8.73788 14.618ZM10.7779 14.618C10.7779 15.794 11.1859 16.79 12.0139 17.618C12.8299 18.446 13.8259 18.866 15.0019 18.866C16.1779 18.866 17.1739 18.446 18.0019 17.618C18.8299 16.79 19.2499 15.794 19.2499 14.618C19.2499 13.466 18.8299 12.482 18.0019 11.654C17.1739 10.838 16.1779 10.43 15.0019 10.43C13.8379 10.43 12.8419 10.838 12.0259 11.654C11.1859 12.482 10.7779 13.466 10.7779 14.618ZM13.9699 23.954C13.9699 23.666 14.0659 23.426 14.2699 23.234C14.4739 23.042 14.7139 22.946 14.9899 22.946C15.2779 22.946 15.5299 23.042 15.7219 23.234C15.9139 23.426 16.0099 23.666 16.0099 23.954V26.342C16.0099 26.63 15.9139 26.882 15.7099 27.086C15.5059 27.29 15.2659 27.386 14.9899 27.386C14.7139 27.386 14.4619 27.29 14.2699 27.086C14.1722 26.9887 14.0952 26.8726 14.0437 26.7448C13.9921 26.6169 13.967 26.4799 13.9699 26.342V23.954ZM13.9699 5.35402V2.90602C13.9699 2.63002 14.0659 2.39002 14.2699 2.18602C14.4739 1.98202 14.7139 1.87402 15.0019 1.87402C15.2899 1.87402 15.5179 1.97002 15.7219 2.17402C15.9259 2.37802 16.0219 2.61802 16.0219 2.89402V5.35402C16.0219 5.63002 15.9259 5.85802 15.7219 6.05002C15.5179 6.24202 15.2779 6.32602 15.0019 6.32602C14.7259 6.32602 14.4739 6.23002 14.2819 6.05002C14.0899 5.87002 13.9699 5.63002 13.9699 5.35402ZM20.5939 21.17C20.5939 20.894 20.6899 20.666 20.8699 20.498C21.0499 20.306 21.2779 20.222 21.5419 20.222C21.8299 20.222 22.0699 20.318 22.2619 20.498L24.0139 22.214C24.2059 22.418 24.3019 22.67 24.3019 22.946C24.3019 23.222 24.2059 23.462 24.0139 23.654C23.5339 24.026 23.0539 24.026 22.5739 23.654L20.8699 21.95C20.6855 21.7326 20.5873 21.4551 20.5939 21.17ZM20.5939 8.06602C20.5939 7.76602 20.6899 7.52602 20.8699 7.35802L22.5739 5.59402C22.7629 5.4088 23.0172 5.30536 23.2819 5.30602C23.5699 5.30602 23.8099 5.40202 24.0019 5.60602C24.2059 5.81002 24.3019 6.05002 24.3019 6.32602C24.3019 6.62602 24.2059 6.87802 24.0139 7.07002L22.2619 8.78602C22.0459 8.97802 21.8059 9.07402 21.5419 9.07402C21.2659 9.07402 21.0499 8.97802 20.8699 8.78602C20.6899 8.59402 20.5939 8.35402 20.5939 8.06602ZM23.3059 14.618C23.3059 14.33 23.4019 14.09 23.5939 13.874C23.7859 13.682 24.0139 13.586 24.2779 13.586H26.7019C26.9779 13.586 27.2179 13.694 27.4219 13.898C27.6259 14.102 27.7339 14.342 27.7339 14.618C27.7339 14.894 27.6259 15.134 27.4219 15.338C27.2179 15.542 26.9779 15.638 26.7019 15.638H24.2779C24.0019 15.638 23.7619 15.542 23.5819 15.338C23.4019 15.134 23.3059 14.906 23.3059 14.618Z" stroke="url(#paint0_linear_158_8)" stroke-width="2.4" mask="url(#path-1-inside-1_158_8)"/>
<defs>
<linearGradient id="paint0_linear_158_8" x1="34.778" y1="18.2469" x2="-18.1094" y2="23.9434" gradientUnits="userSpaceOnUse">
<stop stop-color="white" stop-opacity="0.8"/>
<stop offset="1" stop-color="white" stop-opacity="0"/>
</linearGradient>
</defs>
</svg>
