<svg width="30" height="30" viewBox="0 0 30 30" fill="none" xmlns="http://www.w3.org/2000/svg">
<path d="M7.24782 12.1577L7.61755 12.0744L7.70119 11.7048C8.04268 10.1956 8.81951 8.96833 10.0249 7.99518C11.2246 7.02661 12.6031 6.54434 14.16 6.54434C15.6804 6.54434 17.0259 7.01449 18.2169 7.95182C19.4057 8.88746 20.1715 10.09 20.5244 11.5677L20.6344 12.0283H21.108H21.504C22.4814 12.0283 23.3755 12.266 24.1965 12.7305C25.0164 13.1945 25.6708 13.8383 26.1447 14.657C26.6214 15.4804 26.868 16.3611 26.868 17.3323L26.868 17.3369C26.8749 18.2555 26.6442 19.1604 26.1982 19.9635C25.7522 20.7667 25.1061 21.4409 24.3226 21.9207L24.3211 21.9216C23.5392 22.4036 22.6725 22.6623 21.7333 22.6963H8.30574C6.85665 22.6285 5.64942 22.0818 4.64293 21.0429L4.64293 21.0429L4.64074 21.0406C3.63481 20.0131 3.13198 18.7839 3.13198 17.3323C3.13198 16.0896 3.517 14.9975 4.2965 14.0232C5.07833 13.0459 6.05316 12.4267 7.24782 12.1577ZM8.25716 21.8793L8.27456 21.8803H8.29198H21.72H21.7339L21.7479 21.8797C22.9431 21.8241 23.9631 21.3313 24.784 20.4565C25.621 19.5775 26.04 18.518 26.04 17.3323C26.04 16.1047 25.5715 15.0537 24.6849 14.1808C23.7951 13.3047 22.7209 12.8563 21.48 12.8563H19.9133L19.8682 12.4892C19.7195 11.0438 19.0834 9.81671 17.9909 8.84419C16.9 7.87297 15.6189 7.37234 14.16 7.37234C12.7043 7.37234 11.4082 7.87091 10.3369 8.84789C9.25875 9.82013 8.63669 11.0455 8.49989 12.4866L8.448 12.8563H8.12398H8.08839L8.05306 12.8605C6.90358 12.9974 5.93163 13.4962 5.16199 14.3346C4.39162 15.1737 3.98398 16.1813 3.98398 17.3323C3.98398 18.5312 4.40365 19.5772 5.22626 20.4547C6.05094 21.3344 7.07094 21.8104 8.25716 21.8793Z" stroke="url(#paint0_linear_158_24)" stroke-width="1.2"/>
<defs>
<linearGradient id="paint0_linear_158_24" x1="34.3598" y1="17.0804" x2="-16.7559" y2="24.9998" gradientUnits="userSpaceOnUse">
<stop stop-color="white" stop-opacity="0.8"/>
<stop offset="1" stop-color="white" stop-opacity="0"/>
</linearGradient>
</defs>
</svg>
