<svg width="30" height="30" viewBox="0 0 30 30" fill="none" xmlns="http://www.w3.org/2000/svg">
<g clip-path="url(#clip0_158_12)">
<mask id="path-1-inside-1_158_12" fill="white">
<path d="M2.5769 16.8116C2.5769 18.3956 3.1409 19.7636 4.2569 20.9036C5.3729 22.0556 6.7289 22.6556 8.3129 22.7036C8.4569 22.7036 8.5289 22.6316 8.5289 22.4996V20.9036C8.5289 20.7596 8.4569 20.6876 8.3129 20.6876C7.3049 20.6396 6.4289 20.2316 5.7089 19.4636C4.9889 18.6956 4.6169 17.8196 4.6169 16.7996C4.6169 15.7916 4.9529 14.9156 5.6369 14.1716C6.3209 13.4276 7.1489 13.0076 8.1569 12.9236L8.7929 12.8396C8.9369 12.8396 9.0209 12.7676 9.0209 12.6236L9.1049 12.0236C9.2249 10.7156 9.7649 9.61157 10.7369 8.72357C11.7089 7.83557 12.8489 7.39157 14.1689 7.39157C15.4649 7.39157 16.6049 7.83557 17.5769 8.71157C18.5489 9.58757 19.1129 10.6676 19.2569 11.9636L19.3409 12.6596C19.3409 12.8036 19.4129 12.8756 19.5689 12.8756H21.4889C22.5689 12.8756 23.4929 13.2596 24.2729 14.0396C25.0409 14.8076 25.4369 15.7316 25.4369 16.7996C25.4369 17.8076 25.0769 18.6956 24.3569 19.4636C23.6369 20.2196 22.7609 20.6276 21.7409 20.6876C21.5849 20.6876 21.5009 20.7596 21.5009 20.9036V22.4996C21.5009 22.6316 21.5849 22.7036 21.7409 22.7036C23.3369 22.6556 24.6929 22.0556 25.7969 20.9036C26.9009 19.7516 27.4529 18.3956 27.4529 16.7996C27.4529 15.7316 27.1889 14.7356 26.6489 13.8236C26.1285 12.9243 25.379 12.179 24.4769 11.6636C23.5649 11.1356 22.5689 10.8716 21.5009 10.8716H21.1289C20.758 9.30612 19.8649 7.91368 18.5969 6.92357C17.348 5.91415 15.7866 5.37106 14.1809 5.38757C12.4889 5.38757 10.9889 5.91557 9.6809 6.95957C8.3729 8.00357 7.5329 9.34757 7.1609 10.9796C5.8049 11.3276 4.7129 12.0356 3.8609 13.1036C3.0089 14.1716 2.5769 15.4196 2.5769 16.8116ZM9.0569 25.2356C9.0569 25.4396 9.1169 25.6436 9.2489 25.8476C9.3809 26.0516 9.5729 26.1836 9.8129 26.2676C10.0889 26.3516 10.3409 26.3396 10.5809 26.2196C10.8089 26.1116 10.9769 25.8836 11.0489 25.5476L11.2169 24.8156C11.2816 24.5547 11.2411 24.2789 11.1041 24.0476C10.9672 23.8163 10.7448 23.6482 10.4849 23.5796C10.2209 23.4956 9.9569 23.5316 9.7169 23.6756C9.4769 23.8196 9.3089 24.0356 9.2369 24.3116L9.0689 25.0196C9.0689 25.0556 9.0569 25.1276 9.0569 25.2356ZM9.9689 21.7556C9.9689 22.0076 10.0649 22.2356 10.2689 22.4396C10.4609 22.6436 10.6769 22.7396 10.9409 22.7396C11.2289 22.7396 11.4689 22.6436 11.6609 22.4516C11.8529 22.2596 11.9489 22.0316 11.9489 21.7436C11.9489 21.4676 11.8529 21.2276 11.6609 21.0356C11.5675 20.9401 11.4553 20.8652 11.3313 20.8156C11.2073 20.7661 11.0743 20.7429 10.9409 20.7476C10.6649 20.7476 10.4369 20.8436 10.2449 21.0236C10.0649 21.2396 9.9689 21.4796 9.9689 21.7556ZM10.7009 19.0316C10.6889 19.2236 10.7369 19.4036 10.8689 19.5716C10.9889 19.7516 11.1809 19.8716 11.4449 19.9556C11.6969 20.0276 11.9369 20.0036 12.1889 19.8716C12.4409 19.7396 12.5969 19.5356 12.6809 19.2596L13.0169 18.1796C13.1009 17.8916 13.0769 17.6276 12.9329 17.3996C12.7847 17.1664 12.5528 16.999 12.2849 16.9316C12.1605 16.8887 12.0282 16.874 11.8975 16.8885C11.7667 16.9031 11.6408 16.9464 11.5289 17.0156C11.2923 17.1429 11.1155 17.3586 11.0369 17.6156L10.7489 18.7196C10.7489 18.7436 10.7369 18.7916 10.7249 18.8636C10.7129 18.9236 10.7009 18.9836 10.7009 19.0316ZM12.1049 28.9796C12.1049 29.1956 12.1649 29.3876 12.2849 29.5796C12.4049 29.7716 12.5969 29.9036 12.8609 29.9756C12.9569 29.9996 13.0649 30.0116 13.1609 30.0116C13.6769 30.0116 13.9889 29.7716 14.1089 29.2796L14.2769 28.5716C14.3511 28.2974 14.3167 28.0051 14.1809 27.7556C14.1147 27.6413 14.0247 27.5425 13.9171 27.4659C13.8094 27.3893 13.6866 27.3367 13.5569 27.3116C13.4325 27.2687 13.3002 27.254 13.1695 27.2685C13.0387 27.2831 12.9128 27.3265 12.8009 27.3956C12.5489 27.5396 12.3929 27.7436 12.3089 28.0076L12.1409 28.7156C12.1169 28.8236 12.1049 28.9076 12.1049 28.9796ZM13.0289 25.4996C13.0289 25.7636 13.1249 25.9916 13.3289 26.1956C13.5209 26.3876 13.7489 26.4836 14.0129 26.4836C14.3009 26.4836 14.5289 26.3876 14.7209 26.2076C14.9129 26.0156 14.9969 25.7876 14.9969 25.4996C15.0014 25.3697 14.9789 25.2403 14.9308 25.1196C14.8828 24.9988 14.8103 24.8894 14.7178 24.798C14.6254 24.7067 14.515 24.6355 14.3937 24.589C14.2724 24.5424 14.1427 24.5215 14.0129 24.5276C13.7249 24.5276 13.4969 24.6236 13.3049 24.8036C13.1129 24.9836 13.0289 25.2236 13.0289 25.4996ZM13.7849 22.7756C13.7729 22.9556 13.8209 23.1476 13.9409 23.3396C14.0609 23.5316 14.2409 23.6516 14.4809 23.6996C14.7569 23.7716 15.0089 23.7476 15.2489 23.6276C15.4889 23.5076 15.6449 23.2796 15.7409 22.9556L16.0649 21.8756C16.1489 21.6116 16.1249 21.3596 15.9809 21.1196C15.8407 20.8818 15.612 20.7092 15.3449 20.6396C15.2176 20.5991 15.083 20.5867 14.9504 20.6033C14.8178 20.6199 14.6904 20.665 14.5769 20.7356C14.3249 20.8796 14.1689 21.0956 14.0849 21.3716L13.8089 22.4516C13.7969 22.5476 13.7849 22.6556 13.7849 22.7756ZM17.0969 25.3556C17.0969 25.5476 17.1569 25.7396 17.2769 25.9316C17.3969 26.1236 17.5889 26.2556 17.8289 26.3276C17.8649 26.3276 17.9249 26.3396 17.9969 26.3516C18.0689 26.3636 18.1169 26.3756 18.1649 26.3756C18.6569 26.3756 18.9569 26.1116 19.0769 25.5836L19.2449 24.8636C19.3289 24.6116 19.3049 24.3596 19.1609 24.1076C19.0993 23.9871 19.013 23.8809 18.9075 23.7961C18.802 23.7113 18.6798 23.6498 18.5489 23.6156C18.2489 23.5436 17.9729 23.5676 17.7329 23.7116C17.4929 23.8556 17.3249 24.0596 17.2409 24.3476L17.1329 25.0556C17.1329 25.0796 17.1209 25.1396 17.1089 25.1996C17.0969 25.2596 17.0969 25.3076 17.0969 25.3556ZM17.9849 21.8036C17.9849 22.0676 18.0809 22.3076 18.2849 22.4876C18.4649 22.6796 18.6929 22.7756 18.9689 22.7756C19.2569 22.7756 19.4849 22.6796 19.6769 22.4996C19.8689 22.3196 19.9529 22.0796 19.9529 21.8036C19.9529 21.5156 19.8569 21.2876 19.6769 21.0956C19.4969 20.9036 19.2569 20.8196 18.9689 20.8196C18.6809 20.8196 18.4529 20.9156 18.2609 21.0956C18.0809 21.2876 17.9849 21.5156 17.9849 21.8036ZM18.7169 19.0316C18.7169 19.2356 18.7769 19.4276 18.9089 19.6076C19.0409 19.7876 19.2329 19.9196 19.4969 19.9916C19.5209 19.9916 19.5689 20.0036 19.6409 20.0156C19.7129 20.0276 19.7729 20.0396 19.8089 20.0396C19.9289 20.0396 20.0729 20.0036 20.2409 19.9316C20.4929 19.7996 20.6609 19.5836 20.7329 19.3076L21.0209 18.2276C21.0929 17.9516 21.0689 17.6996 20.9249 17.4716C20.8603 17.3546 20.7728 17.2518 20.6677 17.1694C20.5626 17.0869 20.4419 17.0264 20.3129 16.9916C20.1869 16.9498 20.0535 16.9347 19.9214 16.947C19.7892 16.9594 19.661 16.9991 19.5449 17.0636C19.3169 17.1956 19.1489 17.3876 19.0769 17.6756L18.7409 18.7676C18.7409 18.7916 18.7289 18.8396 18.7169 18.9116V19.0316Z"/>
</mask>
<path d="M2.5769 16.8116C2.5769 18.3956 3.1409 19.7636 4.2569 20.9036C5.3729 22.0556 6.7289 22.6556 8.3129 22.7036C8.4569 22.7036 8.5289 22.6316 8.5289 22.4996V20.9036C8.5289 20.7596 8.4569 20.6876 8.3129 20.6876C7.3049 20.6396 6.4289 20.2316 5.7089 19.4636C4.9889 18.6956 4.6169 17.8196 4.6169 16.7996C4.6169 15.7916 4.9529 14.9156 5.6369 14.1716C6.3209 13.4276 7.1489 13.0076 8.1569 12.9236L8.7929 12.8396C8.9369 12.8396 9.0209 12.7676 9.0209 12.6236L9.1049 12.0236C9.2249 10.7156 9.7649 9.61157 10.7369 8.72357C11.7089 7.83557 12.8489 7.39157 14.1689 7.39157C15.4649 7.39157 16.6049 7.83557 17.5769 8.71157C18.5489 9.58757 19.1129 10.6676 19.2569 11.9636L19.3409 12.6596C19.3409 12.8036 19.4129 12.8756 19.5689 12.8756H21.4889C22.5689 12.8756 23.4929 13.2596 24.2729 14.0396C25.0409 14.8076 25.4369 15.7316 25.4369 16.7996C25.4369 17.8076 25.0769 18.6956 24.3569 19.4636C23.6369 20.2196 22.7609 20.6276 21.7409 20.6876C21.5849 20.6876 21.5009 20.7596 21.5009 20.9036V22.4996C21.5009 22.6316 21.5849 22.7036 21.7409 22.7036C23.3369 22.6556 24.6929 22.0556 25.7969 20.9036C26.9009 19.7516 27.4529 18.3956 27.4529 16.7996C27.4529 15.7316 27.1889 14.7356 26.6489 13.8236C26.1285 12.9243 25.379 12.179 24.4769 11.6636C23.5649 11.1356 22.5689 10.8716 21.5009 10.8716H21.1289C20.758 9.30612 19.8649 7.91368 18.5969 6.92357C17.348 5.91415 15.7866 5.37106 14.1809 5.38757C12.4889 5.38757 10.9889 5.91557 9.6809 6.95957C8.3729 8.00357 7.5329 9.34757 7.1609 10.9796C5.8049 11.3276 4.7129 12.0356 3.8609 13.1036C3.0089 14.1716 2.5769 15.4196 2.5769 16.8116ZM9.0569 25.2356C9.0569 25.4396 9.1169 25.6436 9.2489 25.8476C9.3809 26.0516 9.5729 26.1836 9.8129 26.2676C10.0889 26.3516 10.3409 26.3396 10.5809 26.2196C10.8089 26.1116 10.9769 25.8836 11.0489 25.5476L11.2169 24.8156C11.2816 24.5547 11.2411 24.2789 11.1041 24.0476C10.9672 23.8163 10.7448 23.6482 10.4849 23.5796C10.2209 23.4956 9.9569 23.5316 9.7169 23.6756C9.4769 23.8196 9.3089 24.0356 9.2369 24.3116L9.0689 25.0196C9.0689 25.0556 9.0569 25.1276 9.0569 25.2356ZM9.9689 21.7556C9.9689 22.0076 10.0649 22.2356 10.2689 22.4396C10.4609 22.6436 10.6769 22.7396 10.9409 22.7396C11.2289 22.7396 11.4689 22.6436 11.6609 22.4516C11.8529 22.2596 11.9489 22.0316 11.9489 21.7436C11.9489 21.4676 11.8529 21.2276 11.6609 21.0356C11.5675 20.9401 11.4553 20.8652 11.3313 20.8156C11.2073 20.7661 11.0743 20.7429 10.9409 20.7476C10.6649 20.7476 10.4369 20.8436 10.2449 21.0236C10.0649 21.2396 9.9689 21.4796 9.9689 21.7556ZM10.7009 19.0316C10.6889 19.2236 10.7369 19.4036 10.8689 19.5716C10.9889 19.7516 11.1809 19.8716 11.4449 19.9556C11.6969 20.0276 11.9369 20.0036 12.1889 19.8716C12.4409 19.7396 12.5969 19.5356 12.6809 19.2596L13.0169 18.1796C13.1009 17.8916 13.0769 17.6276 12.9329 17.3996C12.7847 17.1664 12.5528 16.999 12.2849 16.9316C12.1605 16.8887 12.0282 16.874 11.8975 16.8885C11.7667 16.9031 11.6408 16.9464 11.5289 17.0156C11.2923 17.1429 11.1155 17.3586 11.0369 17.6156L10.7489 18.7196C10.7489 18.7436 10.7369 18.7916 10.7249 18.8636C10.7129 18.9236 10.7009 18.9836 10.7009 19.0316ZM12.1049 28.9796C12.1049 29.1956 12.1649 29.3876 12.2849 29.5796C12.4049 29.7716 12.5969 29.9036 12.8609 29.9756C12.9569 29.9996 13.0649 30.0116 13.1609 30.0116C13.6769 30.0116 13.9889 29.7716 14.1089 29.2796L14.2769 28.5716C14.3511 28.2974 14.3167 28.0051 14.1809 27.7556C14.1147 27.6413 14.0247 27.5425 13.9171 27.4659C13.8094 27.3893 13.6866 27.3367 13.5569 27.3116C13.4325 27.2687 13.3002 27.254 13.1695 27.2685C13.0387 27.2831 12.9128 27.3265 12.8009 27.3956C12.5489 27.5396 12.3929 27.7436 12.3089 28.0076L12.1409 28.7156C12.1169 28.8236 12.1049 28.9076 12.1049 28.9796ZM13.0289 25.4996C13.0289 25.7636 13.1249 25.9916 13.3289 26.1956C13.5209 26.3876 13.7489 26.4836 14.0129 26.4836C14.3009 26.4836 14.5289 26.3876 14.7209 26.2076C14.9129 26.0156 14.9969 25.7876 14.9969 25.4996C15.0014 25.3697 14.9789 25.2403 14.9308 25.1196C14.8828 24.9988 14.8103 24.8894 14.7178 24.798C14.6254 24.7067 14.515 24.6355 14.3937 24.589C14.2724 24.5424 14.1427 24.5215 14.0129 24.5276C13.7249 24.5276 13.4969 24.6236 13.3049 24.8036C13.1129 24.9836 13.0289 25.2236 13.0289 25.4996ZM13.7849 22.7756C13.7729 22.9556 13.8209 23.1476 13.9409 23.3396C14.0609 23.5316 14.2409 23.6516 14.4809 23.6996C14.7569 23.7716 15.0089 23.7476 15.2489 23.6276C15.4889 23.5076 15.6449 23.2796 15.7409 22.9556L16.0649 21.8756C16.1489 21.6116 16.1249 21.3596 15.9809 21.1196C15.8407 20.8818 15.612 20.7092 15.3449 20.6396C15.2176 20.5991 15.083 20.5867 14.9504 20.6033C14.8178 20.6199 14.6904 20.665 14.5769 20.7356C14.3249 20.8796 14.1689 21.0956 14.0849 21.3716L13.8089 22.4516C13.7969 22.5476 13.7849 22.6556 13.7849 22.7756ZM17.0969 25.3556C17.0969 25.5476 17.1569 25.7396 17.2769 25.9316C17.3969 26.1236 17.5889 26.2556 17.8289 26.3276C17.8649 26.3276 17.9249 26.3396 17.9969 26.3516C18.0689 26.3636 18.1169 26.3756 18.1649 26.3756C18.6569 26.3756 18.9569 26.1116 19.0769 25.5836L19.2449 24.8636C19.3289 24.6116 19.3049 24.3596 19.1609 24.1076C19.0993 23.9871 19.013 23.8809 18.9075 23.7961C18.802 23.7113 18.6798 23.6498 18.5489 23.6156C18.2489 23.5436 17.9729 23.5676 17.7329 23.7116C17.4929 23.8556 17.3249 24.0596 17.2409 24.3476L17.1329 25.0556C17.1329 25.0796 17.1209 25.1396 17.1089 25.1996C17.0969 25.2596 17.0969 25.3076 17.0969 25.3556ZM17.9849 21.8036C17.9849 22.0676 18.0809 22.3076 18.2849 22.4876C18.4649 22.6796 18.6929 22.7756 18.9689 22.7756C19.2569 22.7756 19.4849 22.6796 19.6769 22.4996C19.8689 22.3196 19.9529 22.0796 19.9529 21.8036C19.9529 21.5156 19.8569 21.2876 19.6769 21.0956C19.4969 20.9036 19.2569 20.8196 18.9689 20.8196C18.6809 20.8196 18.4529 20.9156 18.2609 21.0956C18.0809 21.2876 17.9849 21.5156 17.9849 21.8036ZM18.7169 19.0316C18.7169 19.2356 18.7769 19.4276 18.9089 19.6076C19.0409 19.7876 19.2329 19.9196 19.4969 19.9916C19.5209 19.9916 19.5689 20.0036 19.6409 20.0156C19.7129 20.0276 19.7729 20.0396 19.8089 20.0396C19.9289 20.0396 20.0729 20.0036 20.2409 19.9316C20.4929 19.7996 20.6609 19.5836 20.7329 19.3076L21.0209 18.2276C21.0929 17.9516 21.0689 17.6996 20.9249 17.4716C20.8603 17.3546 20.7728 17.2518 20.6677 17.1694C20.5626 17.0869 20.4419 17.0264 20.3129 16.9916C20.1869 16.9498 20.0535 16.9347 19.9214 16.947C19.7892 16.9594 19.661 16.9991 19.5449 17.0636C19.3169 17.1956 19.1489 17.3876 19.0769 17.6756L18.7409 18.7676C18.7409 18.7916 18.7289 18.8396 18.7169 18.9116V19.0316Z" stroke="url(#paint0_linear_158_12)" stroke-width="2.4" mask="url(#path-1-inside-1_158_12)"/>
</g>
<defs>
<linearGradient id="paint0_linear_158_12" x1="34.3279" y1="21.1904" x2="-17.2763" y2="26.8108" gradientUnits="userSpaceOnUse">
<stop stop-color="white" stop-opacity="0.8"/>
<stop offset="1" stop-color="white" stop-opacity="0"/>
</linearGradient>
<clipPath id="clip0_158_12">
<rect width="30" height="30" fill="white"/>
</clipPath>
</defs>
</svg>
