<svg width="30" height="30" viewBox="0 0 30 30" fill="none" xmlns="http://www.w3.org/2000/svg">
<path d="M4.59982 18.0654L4.62074 18.0468L4.63983 18.0263C4.67383 17.9899 4.74282 17.9409 4.9092 17.9409H15.7092C15.8275 17.9409 15.9101 17.9752 15.9948 18.0546C16.0382 18.0953 16.0812 18.1606 16.0812 18.3249C16.0812 18.4633 16.0409 18.563 15.9553 18.6599C15.9026 18.7197 15.8344 18.7569 15.7092 18.7569H4.9092C4.80899 18.7569 4.7173 18.7245 4.61346 18.6206C4.50355 18.5107 4.4772 18.4295 4.4772 18.3369C4.4772 18.221 4.5114 18.1439 4.59982 18.0654ZM10.3013 12.2065L10.254 12.5579L9.90162 12.6036C9.08085 12.6628 8.35084 12.9463 7.70035 13.4446C7.10898 13.8975 6.66608 14.4555 6.35405 15.1089H5.38278C5.6749 14.3667 6.10754 13.727 6.68779 13.1824C7.39244 12.5211 8.20835 12.0825 9.13064 11.8788L9.50587 11.7959L9.58751 11.4204C9.91899 9.89554 10.6745 8.6602 11.8741 7.69175L11.8741 7.69176L11.8767 7.68966C13.0757 6.71061 14.4411 6.22891 16.0092 6.22891C17.5284 6.22891 18.862 6.6983 20.0537 7.63609C21.2096 8.55044 22.0227 9.82839 22.3612 11.2627L22.4703 11.7249H22.9452H23.3172C24.2956 11.7249 25.1993 11.963 26.0166 12.4362L26.0189 12.4375C26.8255 12.8998 27.4943 13.5686 27.9566 14.3753L27.9579 14.3775C28.4317 15.1958 28.6692 16.0877 28.6692 17.0649C28.6692 17.7889 28.5292 18.4768 28.2492 19.1336C27.9646 19.8014 27.586 20.3716 27.1169 20.8406C26.6459 21.3117 26.0878 21.6887 25.4132 21.9716C24.7424 22.2529 24.0532 22.3929 23.3172 22.3929H15.4332V21.5649H23.3172C24.5477 21.5649 25.6234 21.1153 26.5135 20.2252C27.3869 19.3517 27.8532 18.2898 27.8532 17.0649C27.8532 15.8138 27.406 14.7372 26.5255 13.8566C25.645 12.9761 24.5683 12.5289 23.3172 12.5289H21.737L21.693 12.1582L21.6931 12.1582L21.6922 12.1518C21.506 10.7155 20.8745 9.50404 19.8066 8.54293L19.8066 8.54292L19.8035 8.54015C18.7334 7.59049 17.4637 7.10491 16.0092 7.10491C14.5429 7.10491 13.2607 7.59043 12.1662 8.56476L12.1662 8.56475L12.1635 8.5672C11.087 9.53742 10.4506 10.7499 10.3013 12.2065ZM6.60112 25.7264H6.6012V25.7169C6.6012 25.5983 6.63798 25.5152 6.72442 25.4338L6.73809 25.421L6.75092 25.4073C6.79159 25.3639 6.85693 25.3209 7.0212 25.3209H17.8092C17.9564 25.3209 18.0498 25.366 18.1169 25.4332L18.1234 25.4396L18.13 25.4458C18.2032 25.5147 18.2412 25.5916 18.2412 25.7289C18.2412 25.8629 18.2049 25.9487 18.1169 26.0366C18.029 26.1246 17.9431 26.1609 17.8092 26.1609H7.0212C6.90334 26.1609 6.81646 26.1274 6.72611 26.0373C6.68573 25.9965 6.65388 25.9481 6.63242 25.8949C6.61085 25.8414 6.60021 25.7841 6.60112 25.7264ZM1.3212 22.0089C1.3212 21.8637 1.36444 21.7778 1.43242 21.7138C1.51676 21.6344 1.61816 21.5889 1.7772 21.5889H12.5412C12.673 21.5889 12.7475 21.6238 12.8249 21.7012C12.8822 21.7585 12.9252 21.8336 12.9252 22.0089C12.9252 22.1485 12.8851 22.2325 12.8129 22.3046C12.7355 22.3821 12.661 22.4169 12.5292 22.4169H1.7772C1.61816 22.4169 1.51676 22.3714 1.43242 22.292C1.35897 22.2229 1.33293 22.1855 1.32545 22.1728C1.32492 22.1694 1.32416 22.1634 1.32346 22.1538C1.3212 22.1227 1.3212 22.0869 1.3212 22.009V22.0089ZM1.32288 22.1678C1.32297 22.1679 1.32353 22.1689 1.3243 22.1708C1.32318 22.1688 1.32279 22.1678 1.32288 22.1678Z" stroke="url(#paint0_linear_158_16)" stroke-width="1.2"/>
<defs>
<linearGradient id="paint0_linear_158_16" x1="37.159" y1="19.1908" x2="-21.5203" y2="27.7372" gradientUnits="userSpaceOnUse">
<stop stop-color="white" stop-opacity="0.8"/>
<stop offset="1" stop-color="white" stop-opacity="0"/>
</linearGradient>
</defs>
</svg>
